<svg xmlns="http://www.w3.org/2000/svg" viewBox="0 0 480 270" width="480" height="270">
  <defs>
    <radialGradient id="halo" cx="0.5" cy="0.5" r="0.5">
      <stop offset="0.4" stop-color="#6d8dd6" stop-opacity="0.22"/>
      <stop offset="1" stop-color="#6d8dd6" stop-opacity="0"/>
    </radialGradient>
    <filter id="g" x="-60%" y="-60%" width="220%" height="220%">
      <feGaussianBlur stdDeviation="4" result="b"/>
      <feMerge><feMergeNode in="b"/><feMergeNode in="SourceGraphic"/></feMerge>
    </filter>
  </defs>
  <rect width="480" height="270" fill="#03040a"/>
  <g fill="#93a0ba" opacity="0.5">
    <circle cx="40" cy="40" r="1.4"/><circle cx="120" cy="26" r="1"/><circle cx="210" cy="60" r="1.2"/>
    <circle cx="330" cy="34" r="1"/><circle cx="440" cy="80" r="1.4"/><circle cx="70" cy="200" r="1"/>
    <circle cx="180" cy="240" r="1.2"/><circle cx="300" cy="220" r="1"/><circle cx="420" cy="190" r="1.3"/>
    <circle cx="260" cy="120" r="1"/><circle cx="150" cy="150" r="1"/>
  </g>
  <circle cx="272" cy="150" r="86" fill="url(#halo)"/>
  <circle cx="272" cy="150" r="38" fill="#4d5f9c"/>
  <circle cx="262" cy="140" r="30" fill="#6d8dd6" opacity="0.55"/>
  <g fill="#7dd3fc">
    <circle cx="64" cy="228" r="2.6"/><circle cx="92" cy="216" r="2.6"/><circle cx="120" cy="203" r="2.6"/>
    <circle cx="148" cy="189" r="2.6"/><circle cx="176" cy="174" r="2.6"/><circle cx="202" cy="157" r="2.6"/>
    <circle cx="224" cy="138" r="2.6"/><circle cx="240" cy="116" r="2.6"/><circle cx="250" cy="92" r="2.6"/>
    <circle cx="256" cy="68" r="2.6"/><circle cx="268" cy="50" r="2.6"/><circle cx="290" cy="42" r="2.6"/>
    <circle cx="316" cy="44" r="2.6"/><circle cx="342" cy="54" r="2.6"/><circle cx="366" cy="68" r="2.6"/>
  </g>
  <circle cx="52" cy="234" r="7" fill="#e6ecf8"/>
  <g fill="none" stroke="#6ee7b7" stroke-width="5" filter="url(#g)">
    <circle cx="392" cy="82" r="24"/>
  </g>
</svg>
